<svg width="25" height="17" viewBox="0 0 25 17" fill="none" xmlns="http://www.w3.org/2000/svg">
<path d="M0.5 14.8719V1.5379C0.5 1.52257 0.523 1.3759 0.569 1.0979L8.415 7.80991L0.593 15.3379C0.543462 15.1879 0.512236 15.0324 0.5 14.8749V14.8719ZM1.541 0.171905C1.66603 0.122738 1.79969 0.0992708 1.934 0.102905H23.064C23.2058 0.103199 23.3466 0.126502 23.481 0.171905L15.612 6.90691L14.571 7.7399L12.511 9.4289L10.451 7.7399L9.41 6.90691L1.541 0.171905ZM1.565 16.2379L9.457 8.6699L12.512 11.1459L15.567 8.6699L23.459 16.2379C23.3332 16.2844 23.2001 16.3078 23.066 16.3069H1.935C1.80851 16.3064 1.68316 16.283 1.565 16.2379ZM16.608 7.8129L24.428 1.10091C24.4747 1.24287 24.498 1.39147 24.497 1.5409V14.8719C24.4948 15.0296 24.4716 15.1863 24.428 15.3379L16.608 7.8129Z" fill="#FAFAFA"/>
</svg>
