<svg width="22" height="24" viewBox="0 0 22 24" fill="none" xmlns="http://www.w3.org/2000/svg">
<path d="M21.3722 16.9594L16.5597 14.7094C16.3541 14.6139 16.1257 14.5937 15.9087 14.6521C15.6917 14.7104 15.4979 14.844 15.3566 15.0329L13.2254 17.8735C9.88055 16.1531 7.18876 13.2166 5.61172 9.56772L8.21562 7.24272C8.38908 7.08882 8.51185 6.87746 8.56535 6.64063C8.61884 6.40381 8.60015 6.15442 8.51211 5.93022L6.44961 0.68022C6.35298 0.438536 6.18207 0.24121 5.96636 0.122266C5.75065 0.00332195 5.50366 -0.0297838 5.26797 0.028657L0.799219 1.15366C0.571987 1.2109 0.36925 1.35048 0.224097 1.5496C0.0789444 1.74873 -5.2345e-05 1.99565 2.60228e-08 2.25006C2.60228e-08 14.2735 8.9332 24.0001 19.9375 24.0001C20.1708 24.0002 20.3972 23.9141 20.5799 23.7557C20.7625 23.5974 20.8905 23.3762 20.943 23.1282L21.9742 18.2532C22.0274 17.9948 21.9965 17.7243 21.8866 17.4882C21.7767 17.252 21.5948 17.0651 21.3722 16.9594Z" fill="#F0E6E6"/>
</svg>
