<svg width="26" height="24" viewBox="0 0 26 24" fill="none" xmlns="http://www.w3.org/2000/svg">
<path d="M23.7386 6.33036C23.7525 6.52714 23.7525 6.72397 23.7525 6.92076C23.7525 12.9231 19.2157 19.8391 10.9239 19.8391C8.36928 19.8391 5.9962 19.0941 4 17.8009C4.36296 17.843 4.71191 17.8571 5.08883 17.8571C7.19666 17.8571 9.13704 17.1402 10.6865 15.9173C8.7043 15.8751 7.04313 14.5678 6.47079 12.7685C6.75 12.8106 7.02917 12.8387 7.32234 12.8387C7.72715 12.8387 8.132 12.7825 8.50888 12.6841C6.4429 12.2624 4.89336 10.435 4.89336 8.22806V8.17185C5.49359 8.50922 6.19162 8.72007 6.93141 8.74815C5.71695 7.93283 4.92129 6.54121 4.92129 4.96681C4.92129 4.12341 5.1446 3.35027 5.53549 2.67553C7.75504 5.4307 11.0913 7.22997 14.8324 7.4268C14.7626 7.08943 14.7207 6.73804 14.7207 6.38661C14.7207 3.88443 16.7309 1.84619 19.2296 1.84619C20.5278 1.84619 21.7004 2.39441 22.524 3.28C23.543 3.08322 24.5202 2.70366 25.3857 2.18356C25.0506 3.23786 24.3387 4.12345 23.4035 4.68569C24.3109 4.58734 25.1903 4.33426 25.9999 3.98287C25.3858 4.88248 24.618 5.6837 23.7386 6.33036Z" fill="#ECE4E4"/>
</svg>
